<svg width="32" height="32" viewBox="0 0 32 32" fill="none" xmlns="http://www.w3.org/2000/svg">
<rect width="32" height="32" rx="7" fill="#111111"/>
<g transform="translate(4, 5) scale(0.0535)">
<path d="M216.813 6.36593C249.976 -5.1653 281.273 -0.257342 304.425 14.865C322.806 26.8713 342.87 44.565 354.342 74.9587C365.516 104.564 367.164 142.59 356.963 192.925C346.135 246.811 314.538 285.618 273.337 302.763C301.148 346.664 327.33 357.678 341.77 357.241C356.696 356.789 378.978 342.056 385.938 295.816L390.244 267.204L448.903 278.301C446.636 296.597 444.746 308.077 431.36 346.634L431.471 347.144L431.488 347.163C415.216 385.715 385.194 413.953 343.526 415.215C304.701 416.39 267.707 393.169 236.361 351.157C240.049 361.559 243.056 372.178 245.32 382.546C249.086 399.786 251.12 417.703 250.489 434.476C249.874 450.818 246.64 468.519 237.706 483.343C222.677 508.28 196.38 526.348 164.49 520.271C134.995 514.65 111.848 490.123 95.9375 457.485C86.758 438.655 80.6788 411.565 77 382.553C74.7827 365.068 73.3293 345.966 72.7451 326.073C71.6593 327.866 70.592 329.723 69.5498 331.634C65.0093 339.956 61.4504 348.294 59.0117 354.642C57.8059 357.781 56.9046 360.351 56.3223 362.082C56.0318 362.945 55.8224 363.595 55.6953 363.996C55.632 364.195 55.5892 364.333 55.5674 364.404L55.5615 364.423C55.5481 364.412 54.9084 364.213 27.7803 356.077C0.487993 347.891 0.00651543 347.74 0 347.73C0.000382075 347.729 0.00249115 347.72 0.00390625 347.716C0.0070963 347.705 0.0107762 347.692 0.0146484 347.679C0.0225295 347.653 0.0322783 347.622 0.0429688 347.587C0.0644768 347.516 0.092188 347.426 0.125 347.32C0.190889 347.106 0.279305 346.821 0.390625 346.469C0.613335 345.767 0.927757 344.796 1.33203 343.594C2.1395 341.194 3.31571 337.847 4.85156 333.849C7.89694 325.922 12.4891 315.093 18.6152 303.864C24.6543 292.794 32.7381 280.301 43.084 269.768C51.1448 261.562 61.7351 253.388 74.8828 248.884C79.9323 190.186 93.4594 129.521 120.953 89.0476C151.307 44.3651 184.092 17.744 216.813 6.36593ZM130.472 306.048C130.465 330.849 131.932 354.559 134.557 375.259C138 402.413 143.139 421.917 148.091 432.076C160.443 457.415 171.903 462.639 175.354 463.297C176.412 463.498 181.406 464.371 188.011 453.412C189.894 450.287 192.088 443.581 192.513 432.297C192.921 421.443 191.607 408.51 188.639 394.918C182.51 366.859 170.612 341.493 159.036 328.807C147.313 315.961 138.04 309.455 130.472 306.048ZM272.691 63.4196C265.266 58.5699 252.832 55.2497 235.874 61.1462C218.474 67.1966 194.743 83.6615 168.949 121.632C150.357 149.002 138.506 195.047 133.389 246.322C136.998 247.083 140.643 248.056 144.323 249.274C164.899 256.084 183.444 269.497 201.896 289.717C202.964 290.887 204.015 292.093 205.052 293.329L228.013 254.442C259.294 252.642 290.32 230.093 300.084 181.504L300.095 181.454C309.064 137.224 306.016 111.215 300.06 95.4343C294.398 80.4333 284.887 71.3855 272.691 63.4196Z" fill="white"/>
</g>
</svg>
